<svg id="Layer_1" data-name="Layer 1" xmlns="http://www.w3.org/2000/svg" viewBox="0 0 293 234"><defs><style>.cls-1,.cls-2{fill:none;stroke-miterlimit:10;}.cls-1{stroke:#025e72;stroke-width:3.14px;}.cls-2{stroke:#d9663d;stroke-width:3.31px;}.cls-3{fill:#d9663d;}</style></defs><path class="cls-1" d="M269,132.43c-.79,20.45-11.39,36.46-32.55,47.57A74.3,74.3,0,0,1,211,187.65c-3.43.43-6.88.48-10.32.71-1.6.1-3.22-.16-4.84-.16H74.44C59.13,188.21,46,183.78,35,175.1c-8.45-6.71-13.62-14.94-15.78-24.44a35.18,35.18,0,0,1-.92-7.61A38,38,0,0,1,23,124.4c6.3-11.5,16.54-19.69,30.86-24.39a29.44,29.44,0,0,1,3.48-1c1.25-.26,1.75-.86,1.77-1.85A22.19,22.19,0,0,1,60,91.89c2.08-7.74,6.79-14.24,14-19.53a48.64,48.64,0,0,1,23.95-9,52.84,52.84,0,0,1,13,.11,2.62,2.62,0,0,0,2.66-.91,52.59,52.59,0,0,1,16.27-12.06,63,63,0,0,1,22-6.08C166.66,43.05,180.11,46,192,53.32c9.17,5.64,15.6,13,19.24,21.92a6.37,6.37,0,0,1,.36.91c.23.93.93,1.31,2.07,1.49A73.83,73.83,0,0,1,242.8,88.5q20.42,13.31,25.12,34.36A42.68,42.68,0,0,1,269,132.43ZM138.22,182.07h0q31.4,0,62.81,0a64.68,64.68,0,0,0,7.51-.38c13.47-1.53,25.27-6,34.84-14,14.34-11.87,20.13-26.24,17.33-42.8a43.12,43.12,0,0,0-10.91-21.69c-7.81-8.72-18-14.72-30.55-18.09a81.66,81.66,0,0,0-10.74-2,3.42,3.42,0,0,1-3.07-2.21c-.11-.31-.21-.62-.31-.93a36.22,36.22,0,0,0-8.28-14.1c-8.92-9.46-20.75-14.6-35.23-15.64a53.29,53.29,0,0,0-11,.46,52.21,52.21,0,0,0-26,10.72,42.81,42.81,0,0,0-7.07,7.11A4,4,0,0,1,113.09,70c-.37-.09-.77-.11-1.15-.17a44.64,44.64,0,0,0-19.15.64C77,74.47,66.3,86.14,66.33,100.22c0,2.44-.72,3.26-3.58,3.9l-1.45.34A49,49,0,0,0,40.87,114C29.64,123.09,24.72,134.12,26.33,147a31.69,31.69,0,0,0,6.29,15.46C42.3,175.26,56.4,181.89,74.74,182,95.9,182.19,117.06,182.07,138.22,182.07Z"/><ellipse class="cls-2" cx="79.79" cy="145.7" rx="8.67" ry="8.64"/><ellipse class="cls-2" cx="121.69" cy="118.34" rx="8.67" ry="8.64"/><ellipse class="cls-2" cx="159.25" cy="138.5" rx="8.67" ry="8.64"/><ellipse class="cls-2" cx="208.37" cy="115.46" rx="8.67" ry="8.64"/><line class="cls-2" x1="87.01" y1="141.38" x2="113.02" y2="121.22"/><line class="cls-2" x1="130.35" y1="121.22" x2="153.47" y2="132.74"/><line class="cls-2" x1="167.92" y1="138.5" x2="202.59" y2="121.22"/><path class="cls-3" d="M79.69,150.79a4.71,4.71,0,1,0-4.7-4.71,4.77,4.77,0,0,0,4.7,4.71Z"/><path class="cls-3" d="M121.83,123.16a4.71,4.71,0,1,0-4.71-4.71,4.76,4.76,0,0,0,4.71,4.71Z"/><path class="cls-3" d="M159.48,142.84a4.71,4.71,0,1,0-4.71-4.7,4.75,4.75,0,0,0,4.71,4.7Z"/><path class="cls-3" d="M208.52,120.05a4.71,4.71,0,1,0-4.71-4.71,4.8,4.8,0,0,0,4.71,4.71Z"/></svg>